<svg width="65" height="20" viewBox="0 0 65 20" fill="none" xmlns="http://www.w3.org/2000/svg">
<path d="M37.9863 7.54938C38.0351 7.38703 38.0838 7.23273 38.1326 7.07023C38.5061 5.8114 38.8797 4.56061 39.2533 3.30162L39.3021 3.15538C39.3428 3.00928 39.4808 2.91998 39.6269 2.91998H40.8615C41.1702 2.91998 41.2352 3.00928 41.1295 3.30162L40.6423 4.59296C40.098 6.00624 39.5539 7.42758 39.0097 8.84086C38.9935 8.88961 38.9692 8.93821 38.9529 8.98696C38.896 9.15751 38.7254 9.27126 38.5468 9.25501C38.1894 9.24696 37.832 9.24696 37.4747 9.25501C37.2229 9.26321 37.0768 9.14946 36.9873 8.92196C36.7843 8.38602 36.5732 7.84187 36.3701 7.30578C35.8828 6.03054 35.3874 4.75546 34.9 3.47217C34.8513 3.37467 34.8188 3.26108 34.7945 3.15538C34.77 2.99303 34.827 2.91178 34.9893 2.91178C35.4524 2.90373 35.9153 2.91178 36.3701 2.91178C36.565 2.91178 36.6544 3.04178 36.7032 3.21233C36.7925 3.52092 36.8818 3.83772 36.9793 4.14632C37.3123 5.2753 37.6372 6.41234 37.9701 7.54133C37.962 7.54938 37.9701 7.54938 37.9863 7.54938Z" fill="white"/>
<path d="M43.7368 6.08756V9.01147C43.7205 9.17382 43.6473 9.24702 43.485 9.25507C43.0464 9.26327 42.6159 9.26327 42.1773 9.25507C42.0149 9.25507 41.9417 9.17382 41.9255 9.01952C41.9174 8.97077 41.9174 8.91397 41.9174 8.86522V3.24489C41.9255 2.99309 41.9905 2.92004 42.2423 2.92004H43.4118C43.6636 2.92004 43.7368 2.99309 43.7368 3.24489V6.08756Z" fill="white"/>
<path d="M42.8352 0.00414113C42.9977 -0.0121089 43.16 0.0203902 43.3145 0.0853902C43.6311 0.207188 43.8504 0.499533 43.8667 0.840783C43.9317 1.57977 43.4363 1.95337 42.7784 1.93712C42.6891 1.93712 42.5996 1.92087 42.5103 1.90462C42.0067 1.78282 41.7469 1.39297 41.7956 0.832581C41.8362 0.385938 42.1855 0.0528902 42.6646 0.0123425C42.7214 0.00414016 42.7784 -0.00390649 42.8352 0.00414113Z" fill="white"/>
<path d="M64.992 5.58391V5.6164C64.9595 5.5839 64.9432 5.53515 64.9595 5.49461V5.42961C64.9595 5.42961 64.9595 5.42141 64.9675 5.42141H64.9595V5.34031H64.9757C64.9757 5.33211 64.9675 5.33211 64.9675 5.32406C64.9513 5.16976 64.9188 5.01531 64.8782 4.86921C64.5777 3.79702 63.9035 3.09054 62.807 2.81429C62.2954 2.69249 61.7755 2.67624 61.2558 2.75749C60.1594 2.91999 59.3715 3.50468 58.9898 4.54437C58.6161 5.53515 58.6243 6.6236 58.9979 7.61438C59.3227 8.51587 59.9726 9.08446 60.9065 9.32001C61.4019 9.44181 61.9218 9.47431 62.4334 9.40126C64.1391 9.19822 64.8457 7.90673 64.9595 6.78594H64.9513V6.67219C64.9432 6.6236 64.935 6.58289 64.9838 6.55039V6.56664C64.9838 6.5586 64.992 6.54235 65 6.53414V5.60016C65 5.59211 64.992 5.59211 64.992 5.58391ZM63.0426 7.12704C62.9938 7.29758 62.9208 7.45204 62.8152 7.59813C62.6365 7.84993 62.3522 8.01243 62.0436 8.03673C61.8893 8.05298 61.735 8.05298 61.5807 8.02048C61.2396 7.95548 60.9553 7.72813 60.8173 7.41133C60.6953 7.15954 60.6223 6.88344 60.598 6.60735C60.5573 6.12805 60.5492 5.6489 60.663 5.17781C60.7035 4.99101 60.7848 4.80422 60.8821 4.64172C61.0608 4.34937 61.3694 4.16257 61.7105 4.13827C61.865 4.12202 62.0193 4.12202 62.1736 4.15452C62.4984 4.21937 62.7665 4.43062 62.9127 4.73117C63.0508 5.01531 63.132 5.33211 63.1481 5.64891C63.1563 5.79516 63.1644 5.94125 63.1563 6.0875C63.1806 6.44485 63.1401 6.79414 63.0426 7.12704Z" fill="white"/>
<path d="M50.7542 0.0609131H49.6252C49.3166 0.0609131 49.2596 0.117868 49.2596 0.426463V3.05803C49.2596 3.11483 49.2841 3.17163 49.2434 3.22858C49.1703 3.22038 49.1296 3.17163 49.0728 3.13928C48.2281 2.64374 47.3429 2.55444 46.4495 2.96858C45.8241 3.26108 45.4342 3.78897 45.1824 4.41437C44.9388 5.01531 44.8819 5.6489 44.8981 6.29054C44.8981 6.89149 45.0362 7.48438 45.3042 8.02047C45.6128 8.61337 46.0596 9.06821 46.7093 9.26321C47.5947 9.53931 48.4232 9.40126 49.1784 8.84087C49.2353 8.80837 49.2678 8.75142 49.3409 8.73517C49.3814 8.82462 49.4139 8.92196 49.4302 9.01946C49.4627 9.14946 49.5764 9.23876 49.7145 9.23876H49.9095C50.2018 9.23876 50.4861 9.24696 50.7703 9.23876C50.9978 9.23876 51.0628 9.16571 51.0708 8.93016V0.369665C51.0628 0.117867 50.9978 0.0609131 50.7542 0.0609131ZM49.2678 6.03875V7.51688C49.2841 7.61438 49.2271 7.70368 49.1378 7.74438C48.748 7.96368 48.3012 8.05297 47.8628 7.98797C47.489 7.94743 47.1642 7.71993 46.9936 7.38703C46.8636 7.12703 46.7906 6.85094 46.7663 6.56664C46.7013 6.055 46.7418 5.53515 46.8636 5.03976C46.9043 4.90171 46.9531 4.77171 47.0261 4.64171C47.1967 4.32507 47.5215 4.12202 47.8789 4.09757C48.3094 4.05702 48.7398 4.13827 49.1296 4.31687C49.2271 4.34937 49.2841 4.44687 49.2759 4.55241C49.2596 5.05601 49.2678 5.54335 49.2678 6.03875Z" fill="white"/>
<path d="M55.6598 6.68045C56.1308 6.64795 56.6019 6.55865 57.0242 6.33115C57.4547 6.12005 57.7553 5.72201 57.8446 5.25091C57.9014 4.95857 57.9014 4.64997 57.8364 4.35762C57.6658 3.62653 57.2029 3.17168 56.5045 2.93614C56.1147 2.81434 55.7004 2.76559 55.2943 2.78184C53.9297 2.81434 52.8902 3.50473 52.4679 4.86927C52.1836 5.77076 52.2241 6.68849 52.5004 7.59014C52.7847 8.51592 53.4343 9.07647 54.3603 9.32827C54.7582 9.42561 55.1725 9.46632 55.5786 9.45007C56.1715 9.44186 56.7644 9.32827 57.3247 9.11702C57.5603 9.02772 57.6171 8.94647 57.6171 8.69467V8.10983C57.609 7.87444 57.5115 7.79319 57.276 7.84998C57.0974 7.89873 56.9269 7.93928 56.7481 7.97998C56.204 8.10983 55.6354 8.13428 55.0832 8.03678C54.5308 7.93123 54.1572 7.61443 54.011 7.06209C53.9704 6.89974 53.9379 6.73724 53.9217 6.5667C53.9622 6.5667 54.0029 6.5667 54.0354 6.58295C54.5714 6.68045 55.1155 6.72099 55.6598 6.68045ZM53.9622 5.38091C54.0192 5.06411 54.0922 4.75552 54.2871 4.49567C54.5876 4.09763 55.0019 3.98388 55.473 4.03263C55.5136 4.03263 55.5461 4.04888 55.5866 4.04888C56.1552 4.13833 56.2933 4.59302 56.1877 5.03161C56.1065 5.35661 55.8384 5.47841 55.5379 5.53521C55.3755 5.56771 55.205 5.58396 55.0344 5.57591C54.7014 5.56771 54.3765 5.54341 54.0517 5.49466C53.9785 5.48646 53.946 5.45396 53.9622 5.38091Z" fill="white"/>
<path d="M32.1931 19.9673C31.7499 19.9434 31.3066 19.9271 30.8634 19.8948C29.6776 19.8055 28.4999 19.6269 27.3466 19.3588C23.3587 18.4329 19.8581 16.5729 16.8043 13.8683C16.52 13.6165 16.252 13.3567 15.9759 13.0967C15.9109 13.0399 15.8541 12.9586 15.8216 12.8774C15.7729 12.7638 15.7972 12.6418 15.8784 12.5525C15.9597 12.4632 16.0897 12.4307 16.2032 12.4795C16.2764 12.512 16.3495 12.5445 16.4145 12.585C19.3302 14.3882 22.514 15.704 25.8522 16.4837C26.973 16.7435 28.102 16.9465 29.239 17.0928C30.8716 17.2958 32.5203 17.3689 34.1609 17.3121C35.0463 17.2876 35.9233 17.2064 36.8005 17.0928C38.8472 16.8328 40.8697 16.3699 42.8271 15.7202C43.8586 15.379 44.8656 14.9891 45.8484 14.5343C45.9946 14.4532 46.1734 14.4287 46.3357 14.4694C46.6037 14.5343 46.7662 14.8105 46.7012 15.0786C46.693 15.1109 46.6768 15.1516 46.6605 15.1841C46.5957 15.3059 46.5062 15.4115 46.3927 15.4927C45.4585 16.2237 44.4515 16.8653 43.3875 17.4014C41.3813 18.4166 39.2371 19.1395 37.028 19.5537C35.7552 19.7807 34.4746 19.9186 33.1857 19.9677L33.1782 19.968V20.0005H32.2035V19.968L32.1931 19.9673ZM47.1398 12.049C47.6758 12.0652 48.2038 12.0977 48.7235 12.2357C48.8698 12.2765 49.0078 12.3252 49.1459 12.3902C49.3327 12.4632 49.4546 12.6418 49.4789 12.8368C49.5114 13.0642 49.5196 13.2997 49.5034 13.5353C49.3977 14.9241 48.9673 16.2644 48.2526 17.4582C47.9926 17.8887 47.6758 18.2786 47.3104 18.6197C47.2373 18.6927 47.1479 18.7497 47.0504 18.7822C46.8961 18.8227 46.7987 18.7415 46.7905 18.5872C46.7987 18.5059 46.815 18.4247 46.8473 18.3436C47.1316 17.5801 47.4079 16.8247 47.6272 16.0369C47.757 15.6065 47.8465 15.1679 47.9033 14.7211C47.9195 14.5587 47.9276 14.3962 47.9113 14.2339C47.9033 13.9576 47.7245 13.7221 47.4566 13.641C47.2048 13.5597 46.9448 13.511 46.6768 13.4947C45.9296 13.4622 45.1824 13.4947 44.4433 13.5922L43.4605 13.714C43.355 13.7221 43.2575 13.714 43.2007 13.6165C43.1437 13.519 43.1682 13.4217 43.225 13.3242C43.29 13.2349 43.3712 13.1536 43.4687 13.0967C44.0697 12.6663 44.7438 12.4065 45.4585 12.2357C46.0109 12.1222 46.5712 12.0652 47.1398 12.049Z" fill="white"/>
<path d="M6.22948 5.40541C6.19698 4.98306 6.08338 4.56877 5.91283 4.18697C5.57979 3.48853 5.06814 2.97689 4.28845 2.79814C3.39501 2.60329 2.59087 2.79814 1.85993 3.34243C1.81118 3.39103 1.75438 3.43173 1.68938 3.46423C1.67313 3.45603 1.65688 3.44798 1.65688 3.43978C1.63258 3.35853 1.61633 3.27743 1.59188 3.19618C1.52688 2.99314 1.44563 2.92009 1.22649 2.92009C0.982738 2.92009 0.730941 2.92814 0.487346 2.92009C0.300548 2.91189 0.13 2.93618 0 3.08243C0 5.9251 3.02103e-07 8.77597 0.00804792 11.6104C0.11375 11.7811 0.276095 11.8135 0.462892 11.8054C0.755392 11.7974 1.04774 11.8054 1.34008 11.8054C1.85188 11.8054 1.85188 11.8054 1.85188 11.3018V8.98706C1.85188 8.93027 1.82743 8.86527 1.88423 8.81652C2.29032 9.13331 2.78587 9.32831 3.29751 9.37691C4.0122 9.45011 4.66205 9.27136 5.20619 8.78402C5.60408 8.41862 5.89658 7.94753 6.05088 7.42768C6.27018 6.76174 6.28643 6.0876 6.22948 5.40541ZM28.2645 6.59924C28.8736 6.71299 29.499 6.72104 30.1082 6.6237C30.4655 6.57495 30.8066 6.46924 31.1234 6.2987C31.4888 6.0876 31.7568 5.79526 31.8706 5.38916C32.1549 4.36572 31.7163 3.33423 30.6523 2.95243C30.1325 2.78189 29.5801 2.72509 29.036 2.79814C27.7527 2.94439 26.9162 3.65103 26.5344 4.87736C26.2663 5.714 26.2988 6.56674 26.5181 7.41143C26.8024 8.49167 27.5171 9.13332 28.5974 9.36066C29.2147 9.49886 29.8401 9.47441 30.4573 9.37691C30.7821 9.32011 31.1071 9.23886 31.4157 9.11706C31.6025 9.04402 31.7 8.93027 31.6918 8.71902C31.6838 8.52417 31.6918 8.32112 31.6918 8.11808C31.6918 7.87448 31.5943 7.80128 31.3589 7.85823C31.1234 7.91503 30.8959 7.96378 30.6603 8.01253C30.1567 8.11808 29.6371 8.11808 29.1335 8.02878C28.4431 7.89058 27.9964 7.29768 28.037 6.56674C28.11 6.57494 28.1913 6.58299 28.2645 6.59924ZM17.0887 9.26332H16.0002C15.7159 9.26332 15.6429 9.18206 15.6429 8.90597V3.26923C15.6429 3.20423 15.6511 3.13939 15.6673 3.07439C15.6997 2.97689 15.7972 2.92009 15.8947 2.92009H16.9099C17.0562 2.92009 17.1455 3.00939 17.1942 3.14743C17.2347 3.26118 17.2592 3.36673 17.2997 3.48853C17.381 3.48853 17.4298 3.43173 17.4865 3.39923C17.9333 3.12314 18.4043 2.88759 18.9323 2.79009C19.3384 2.70884 19.7445 2.70884 20.1506 2.79009C20.5323 2.87134 20.8734 3.09868 21.0927 3.42353C21.1089 3.44798 21.1252 3.46423 21.1414 3.48048C21.1334 3.48853 21.1414 3.48853 21.1496 3.50478C21.3527 3.38298 21.5637 3.25298 21.783 3.13939C22.3516 2.84689 22.9851 2.70079 23.6267 2.73314C24.0898 2.75759 24.5121 2.88759 24.837 3.22868C25.1456 3.54548 25.2593 3.93533 25.2918 4.35767C25.2999 4.44697 25.2999 4.53627 25.2999 4.63377V8.84097C25.2999 9.20636 25.2511 9.25511 24.8857 9.25511H23.8948C23.8298 9.25511 23.7648 9.25511 23.6999 9.24706C23.6024 9.23886 23.5212 9.15761 23.5049 9.06027C23.4887 8.97081 23.4887 8.88152 23.4887 8.79222V5.03166C23.4969 4.87736 23.4806 4.73127 23.4399 4.58502C23.3749 4.33322 23.1476 4.15462 22.8877 4.13837C22.4084 4.10587 21.9293 4.20322 21.4907 4.40627C21.4257 4.42252 21.3852 4.48752 21.3932 4.55252V8.82472C21.3932 8.90597 21.3932 8.97902 21.377 9.06027C21.377 9.17386 21.2877 9.25511 21.1739 9.25511C21.0521 9.26331 20.9303 9.26332 20.8003 9.26332H19.9394C19.6388 9.26332 19.574 9.19011 19.574 8.88972V5.04791C19.574 4.90986 19.5658 4.76377 19.5333 4.62556C19.4765 4.34947 19.2409 4.15462 18.9648 4.13837C18.4775 4.10587 17.9819 4.20322 17.5433 4.41447C17.4785 4.43072 17.4378 4.50377 17.454 4.56877V8.89777C17.454 9.19831 17.389 9.26332 17.0887 9.26332ZM8.86925 9.25511H7.81331C7.75651 9.25511 7.69151 9.25511 7.63471 9.24706C7.52901 9.23886 7.44776 9.14956 7.43971 9.04402C7.43151 8.97902 7.43151 8.91402 7.43151 8.84902V3.32618C7.43151 2.95243 7.47221 2.91189 7.84581 2.91189H8.6255C8.83675 2.91189 8.93409 2.98493 8.99105 3.18798C9.04784 3.39103 9.09659 3.59408 9.14534 3.81337C9.20214 3.79712 9.25089 3.76462 9.28339 3.71603C9.42964 3.56978 9.58394 3.43173 9.74628 3.30173C10.1686 2.97689 10.6967 2.81438 11.2246 2.85509C11.4357 2.86313 11.5089 2.92814 11.5251 3.13118C11.5414 3.40728 11.5332 3.69158 11.5332 3.96767C11.5414 4.08142 11.5332 4.18697 11.5169 4.30072C11.4844 4.44697 11.4276 4.50377 11.2814 4.52002C11.1676 4.52822 11.0621 4.52002 10.9483 4.51197C10.4042 4.46322 9.87628 4.56877 9.36464 4.73931C9.25089 4.78002 9.25089 4.86111 9.25089 4.95056V8.84902C9.25089 8.92206 9.25089 8.98706 9.24285 9.06027C9.23464 9.16581 9.15339 9.24706 9.04784 9.24706C8.99105 9.25511 8.92605 9.25511 8.86925 9.25511ZM13.7749 9.23886H12.6459C12.6052 9.23886 12.5729 9.23886 12.5322 9.23081C12.4184 9.22261 12.3211 9.13331 12.3129 9.01956C12.3048 8.95456 12.3048 8.88972 12.3048 8.82472C12.3129 7.92308 12.3129 6.99729 12.3129 6.07135V3.18798C12.3211 2.99313 12.3941 2.92009 12.589 2.91189C13.0113 2.90384 13.4336 2.90384 13.856 2.91189C14.0428 2.91189 14.0997 2.96868 14.116 3.15548C14.124 3.22868 14.124 3.29368 14.124 3.36673V8.77597C14.124 8.86527 14.116 8.95456 14.1078 9.04402C14.0997 9.14956 14.0185 9.22261 13.9129 9.23081C13.8642 9.23886 13.8236 9.23886 13.7749 9.23886ZM4.28845 7.08659C4.2315 7.33839 4.10165 7.56573 3.91486 7.73628C3.70361 7.91503 3.44376 8.02057 3.16751 8.02057C2.75337 8.04503 2.34727 7.95558 1.98173 7.76073C1.89243 7.72003 1.83563 7.63073 1.84368 7.53323V6.06315C1.84368 5.57596 1.85188 5.08861 1.84368 4.60127C1.83563 4.48752 1.90048 4.39002 2.00618 4.34947C2.45282 4.13837 2.91571 4.04087 3.40306 4.13837C3.74415 4.18697 4.03665 4.40627 4.1747 4.72306C4.2965 4.98306 4.36955 5.26721 4.3858 5.5515C4.43455 6.07135 4.43455 6.5912 4.28845 7.08659ZM28.0614 5.35666C28.0857 5.16166 28.1425 4.97486 28.2157 4.79611C28.4593 4.20322 28.971 4.00017 29.4908 4.03267C29.6371 4.04087 29.7832 4.07338 29.9212 4.13017C30.1325 4.21947 30.2705 4.41447 30.295 4.64182C30.3193 4.78002 30.3112 4.92611 30.2705 5.06416C30.173 5.35666 29.9374 5.47846 29.6533 5.53525C29.4828 5.57596 29.304 5.59221 29.1253 5.57596C28.8086 5.57596 28.4836 5.5515 28.167 5.50275C28.0452 5.4865 28.0452 5.4865 28.0614 5.35666ZM13.255 0.00421985C13.385 -0.00382777 13.5149 0.0204682 13.6367 0.0610158C14.0753 0.207266 14.3028 0.589064 14.2621 1.08446C14.2297 1.5068 13.9129 1.8479 13.4906 1.9129C13.3118 1.9454 13.125 1.9454 12.9465 1.9129C12.4834 1.8236 12.1423 1.4825 12.1748 0.897659C12.2236 0.321017 12.6052 0.00421985 13.255 0.00421985Z" fill="white"/>
</svg>
